<?xml version="1.0" encoding="UTF-8"?>
<svg id="Livello_2" data-name="Livello 2" xmlns="http://www.w3.org/2000/svg" viewBox="0 0 310.07 62.3">
  <defs>
    <style>
      .cls-1 {
        fill: #1d1d1b;
      }
    </style>
  </defs>
  <g id="Livello_1-2" data-name="Livello 1">
    <g>
      <path class="cls-1" d="M35.23,9.88h-11.17v52.42h-12.89V9.88H0V.43h35.23v9.45Z"/>
      <path class="cls-1" d="M46.15,44.34c-1.63-2.92-2.15-4.64-2.15-7.13s.86-4.38,2.41-6.19l5.41-6.27c2.15-2.49,3.09-4.55,3.09-8.68s-1.38-6.19-5.24-6.19h-11V.43h15.21c10.14,0,13.92,4.73,13.92,14.09,0,5.93-1.98,9.8-5.07,13.75l-3.61,4.55c-1.55,1.98-2.23,2.66-2.23,3.78,0,1.2.52,2.41,2.66,6.1l11.52,19.59h-14.87l-10.05-17.96Z"/>
      <path class="cls-1" d="M75.28,48.38c0-6.62.6-13.32,1.72-19.08l3.95-20.11c1.38-6.79,4.21-9.2,9.37-9.2h5.16c5.24,0,8.25,2.49,9.54,9.45l3.95,20.71c1.03,5.24,1.55,12.38,1.55,18.22v13.92h-12.89v-14.7c0-6.02-.52-11.69-1.55-18.65l-2.58-16.76c-.09-.52-.26-1.03-.77-1.03s-.69.52-.77,1.03l-2.75,17.62c-.95,6.19-1.38,11.77-1.38,17.79v14.7h-12.55v-13.92Z"/>
      <path class="cls-1" d="M118.85.43h13.49c2.66,0,3.78.34,5.41,1.98l1.46,1.46c1.46,1.38,1.8,1.55,2.32,1.55s.95-.17,2.32-1.55l1.46-1.46c1.63-1.63,2.75-1.98,5.41-1.98h13.84v61.88h-12.89V10.74h-.6c-.95,0-1.46.26-3.18,1.98l-1.72,1.72c-1.89,1.89-3.01,2.58-4.21,2.58h-.86c-1.2,0-2.15-.52-4.21-2.58l-1.72-1.72c-1.72-1.72-2.23-1.98-3.18-1.98h-.6v51.56h-12.55V.43Z"/>
      <path class="cls-1" d="M203.85,52.85v9.45h-31.2V.43h29.91v9.45h-17.02v10.74h14.44v9.45h-14.44v22.77h18.3Z"/>
      <path class="cls-1" d="M239.34,52.85v9.45h-29.22V.43h12.89v52.42h16.33Z"/>
      <path class="cls-1" d="M273.72,52.85v9.45h-29.22V.43h12.89v52.42h16.33Z"/>
      <path class="cls-1" d="M310.07,52.85v9.45h-31.2V.43h29.91v9.45h-17.02v10.74h14.44v9.45h-14.44v22.77h18.3Z"/>
    </g>
  </g>
</svg>