<?xml version="1.0" encoding="UTF-8"?>
<svg id="Livello_2" data-name="Livello 2" xmlns="http://www.w3.org/2000/svg" viewBox="0 0 172.86 172.86">
  <defs>
    <style>
      .cls-1 {
        fill: #1d1d1b;
      }

      .cls-2 {
        fill: #fff;
      }
    </style>
  </defs>
  <g id="Livello_1-2" data-name="Livello 1">
    <circle class="cls-1" cx="86.43" cy="86.43" r="86.43"/>
    <g>
      <path class="cls-2" d="M86.09,61.88h-12.76v59.9h-14.73v-59.9h-12.76v-10.8h40.26v10.8Z"/>
      <path class="cls-2" d="M98.55,101.26c-1.87-3.34-2.45-5.3-2.45-8.15s.98-5.01,2.75-7.07l6.19-7.17c2.46-2.85,3.54-5.2,3.54-9.92s-1.57-7.07-5.99-7.07h-12.57v-10.8h17.38c11.59,0,15.91,5.4,15.91,16.1,0,6.78-2.26,11.19-5.79,15.71l-4.12,5.2c-1.77,2.26-2.55,3.04-2.55,4.32,0,1.38.59,2.75,3.04,6.97l13.16,22.39h-16.99l-11.49-20.52Z"/>
    </g>
  </g>
</svg>